<?xml version="1.0" encoding="utf-8"?>
<!-- Generator: Adobe Illustrator 27.1.0, SVG Export Plug-In . SVG Version: 6.00 Build 0)  -->
<svg version="1.1" xmlns="http://www.w3.org/2000/svg" xmlns:xlink="http://www.w3.org/1999/xlink" x="0px" y="0px"
	 viewBox="0 0 1011 130" style="enable-background:new 0 0 1011 130;" xml:space="preserve">
<style type="text/css">
	.st0{display:none;}
	.st1{display:inline;fill:none;}
	.st2{display:inline;}
	.st3{font-family:'Montserrat-Regular';}
	.st4{font-size:72px;}
	
		.st5{display:inline;fill:none;stroke:#000000;stroke-width:2.75;stroke-linecap:round;stroke-linejoin:round;stroke-miterlimit:7.3333;}
	.st6{display:inline;fill:#3E5FFF;}
	.st7{fill:none;stroke:#000000;stroke-width:2.75;stroke-linecap:round;stroke-linejoin:round;stroke-miterlimit:7.3333;}
	.st8{fill:none;stroke:#E7E7E4;stroke-width:2.75;stroke-linecap:round;stroke-linejoin:round;stroke-miterlimit:7.3333;}
	.st9{fill:#18181B;}
	.st10{fill:#0059F7;}
</style>
<g id="Capa_1" class="st0">
	<rect x="89.35" y="121.35" class="st1" width="867.39" height="160.65"/>
	<text transform="matrix(1 0 0 1 89.3477 174.771)" class="st2"><tspan x="0" y="0" class="st3 st4">practicode</tspan><tspan x="0" y="86.4" class="st3 st4">PRACTI&lt;CODE /&gt;</tspan></text>
	<path class="st5" d="M340.62,389.22l-8.81,8.81l8.81,8.81"/>
	<path class="st5" d="M456.19,389.22l8.81,8.81l-8.81,8.81"/>
	<path class="st5" d="M450.97,381.89l-7.33,29.33"/>
	<text transform="matrix(1 0 0 1 211.2822 408.856)" class="st2" style="font-family:'Montserrat-Medium'; font-size:31px;">PRACTI</text>
	<text transform="matrix(1 0 0 1 343.4806 408.7007)" class="st2" style="font-family:'Montserrat-Medium'; font-size:31px;">CODE </text>
	<rect x="-220" y="436" class="st6" width="104" height="33"/>
	<g class="st2">
		<path class="st7" d="M361.62,428.22l-8.81,8.81l8.81,8.81"/>
		<path class="st7" d="M368.19,428.22l8.81,8.81l-8.81,8.81"/>
		<text transform="matrix(1 0 0 1 210.6655 448.1836)" style="font-family:'Montserrat-Medium'; font-size:31px;">PRACTIC  </text>
		<text transform="matrix(1 0 0 1 379.0069 448.6088)" style="font-family:'Montserrat-Medium'; font-size:31px;">DE</text>
	</g>
	<text transform="matrix(1 0 0 1 -338.9098 463.1892)" class="st2" style="font-family:'Montserrat-Medium'; font-size:31px;">PRACTI</text>
	<g class="st2">
		<path class="st8" d="M-181.96,443.22l-8.81,8.81l8.81,8.81"/>
		<path class="st8" d="M-175.39,443.22l8.81,8.81l-8.81,8.81"/>
		<text transform="matrix(1 0 0 1 -164.5684 463.6144)" style="fill:#E7E7E4; font-family:'Montserrat-Medium'; font-size:31px;">DE</text>
		<text transform="matrix(1 0 0 1 -217.4713 462.9927)" style="fill:#E7E7E4; font-family:'Montserrat-Medium'; font-size:31px;">C</text>
	</g>
</g>
<g id="Capa_2">
	<g>
		<path class="st9" d="M511.64,111.52c-1.4,0-2.79-0.53-3.86-1.6L472.8,74.93c-2.13-2.13-2.13-5.59,0-7.72l34.98-34.98
			c2.13-2.13,5.59-2.13,7.72,0c2.13,2.13,2.13,5.59,0,7.72l-31.12,31.12l31.12,31.12c2.13,2.13,2.13,5.59,0,7.72
			C514.44,110.99,513.04,111.52,511.64,111.52z"/>
	</g>
	<g>
		<path class="st9" d="M970.56,111.52c-1.4,0-2.79-0.53-3.86-1.6c-2.13-2.13-2.13-5.59,0-7.72l31.12-31.12l-31.12-31.12
			c-2.13-2.13-2.13-5.59,0-7.72c2.13-2.13,5.59-2.13,7.72,0l34.98,34.98c1.02,1.02,1.6,2.41,1.6,3.86s-0.58,2.84-1.6,3.86
			l-34.98,34.98C973.35,110.99,971.95,111.52,970.56,111.52z"/>
	</g>
	<g>
		<path class="st9" d="M920.73,128.91c-0.44,0-0.88-0.05-1.33-0.16c-2.93-0.73-4.7-3.7-3.97-6.62L944.55,5.65
			c0.73-2.92,3.7-4.7,6.62-3.97c2.93,0.73,4.7,3.7,3.97,6.62l-29.12,116.48C925.4,127.25,923.18,128.91,920.73,128.91z"/>
	</g>
	<g>
		<path class="st9" d="M0,112.47V29.49c0-0.88,0.71-1.59,1.59-1.59H33.6c7.55,0,13.99,1.19,19.33,3.57
			c5.33,2.38,9.44,5.83,12.31,10.34c2.87,4.51,4.31,9.89,4.31,16.12c0,6.24-1.44,11.59-4.31,16.07c-2.87,4.47-6.98,7.92-12.31,10.34
			c-5.34,2.42-11.78,3.63-19.33,3.63H10.5c-1.4,0-2.12-1.68-1.15-2.7l0.21-0.22c0.99-1.04,2.75-0.33,2.75,1.1v26.32
			c0,0.88-0.71,1.59-1.59,1.59H1.59C0.71,114.07,0,113.35,0,112.47z M9.53,80.33l-0.36-0.41c-0.92-1.03-0.2-2.66,1.19-2.66h22.89
			c7.88,0,13.85-1.68,17.91-5.05c4.06-3.36,6.09-8.12,6.09-14.28c0-6.15-2.03-10.91-6.09-14.28c-4.06-3.36-10.03-5.05-17.91-5.05
			H10.35c-1.38,0-2.11-1.63-1.19-2.66l0.37-0.41c0.98-1.09,2.78-0.39,2.78,1.07v42.65C12.31,80.72,10.51,81.41,9.53,80.33z"/>
		<path class="st9" d="M87.64,112.47V29.49c0-0.88,0.71-1.59,1.59-1.59h32.01c7.55,0,13.99,1.19,19.33,3.57
			c5.33,2.38,9.44,5.83,12.31,10.34c2.87,4.51,4.31,9.89,4.31,16.12c0,6.24-1.44,11.59-4.31,16.07c-2.87,4.47-6.98,7.9-12.31,10.28
			c-5.34,2.38-11.78,3.57-19.33,3.57H98.2c-1.41,0-2.13-1.7-1.14-2.71l0.15-0.16c1-1.02,2.73-0.31,2.73,1.12v26.38
			c0,0.88-0.71,1.59-1.59,1.59h-9.12C88.36,114.07,87.64,113.35,87.64,112.47z M97.18,80.4l-0.32-0.34
			c-0.94-1.02-0.21-2.67,1.17-2.67h22.84c7.88,0,13.85-1.7,17.91-5.11c4.06-3.4,6.09-8.19,6.09-14.34c0-6.15-2.03-10.91-6.09-14.28
			c-4.06-3.36-10.03-5.05-17.91-5.05H97.99c-1.38,0-2.11-1.63-1.19-2.66l0.37-0.41c0.98-1.09,2.78-0.39,2.78,1.07v42.71
			C99.95,80.78,98.17,81.47,97.18,80.4z M144.78,113.39L125.1,85.31c-0.74-1.06,0.02-2.51,1.31-2.51h9.28c0.52,0,1,0.25,1.3,0.67
			l19.9,28.08c0.75,1.06-0.01,2.52-1.3,2.52h-9.5C145.56,114.07,145.07,113.81,144.78,113.39z"/>
		<path class="st9" d="M165.1,111.81l37.58-82.98c0.26-0.57,0.83-0.94,1.45-0.94h10.13c0.63,0,1.19,0.37,1.45,0.93l37.7,82.98
			c0.48,1.06-0.29,2.25-1.45,2.25h-9.41c-0.63,0-1.21-0.37-1.46-0.95l-33.43-76.08c-0.46-1.05,0.31-2.24,1.46-2.24h0.04
			c1.15,0,1.92,1.18,1.46,2.24l-33.43,76.08c-0.25,0.58-0.83,0.95-1.46,0.95h-9.17C165.4,114.07,164.63,112.87,165.1,111.81z
			 M181.41,90.42l2.25-6.66c0.22-0.65,0.83-1.08,1.51-1.08h46.24c0.67,0,1.27,0.42,1.5,1.05l2.41,6.66c0.38,1.04-0.39,2.14-1.5,2.14
			h-50.9C181.83,92.53,181.06,91.46,181.41,90.42z"/>
		<path class="st9" d="M304.53,115.05c-6.57,0-12.62-1.09-18.16-3.26c-5.54-2.17-10.34-5.25-14.4-9.23
			c-4.06-3.98-7.24-8.64-9.54-13.97c-2.3-5.33-3.45-11.2-3.45-17.6c0-6.4,1.15-12.27,3.45-17.6c2.3-5.33,5.5-9.99,9.6-13.97
			c4.1-3.98,8.92-7.06,14.46-9.23c5.54-2.17,11.59-3.26,18.16-3.26c6.65,0,12.78,1.13,18.4,3.39c5.11,2.05,9.52,5,13.24,8.85
			c0.62,0.64,0.62,1.65-0.02,2.27l-5.75,5.57c-0.63,0.61-1.61,0.58-2.24-0.02c-3-2.89-6.32-5.08-9.97-6.58
			c-4.1-1.68-8.49-2.52-13.17-2.52c-4.84,0-9.34,0.82-13.48,2.46c-4.14,1.64-7.73,3.94-10.77,6.89c-3.04,2.95-5.4,6.46-7.08,10.52
			c-1.68,4.06-2.52,8.47-2.52,13.23c0,4.76,0.84,9.17,2.52,13.23c1.68,4.06,4.04,7.57,7.08,10.52c3.04,2.95,6.63,5.25,10.77,6.89
			c4.14,1.64,8.64,2.46,13.48,2.46c4.68,0,9.07-0.84,13.17-2.52c3.65-1.49,6.97-3.72,9.97-6.67c0.63-0.62,1.62-0.65,2.25-0.03
			l5.74,5.56c0.64,0.62,0.64,1.63,0.02,2.27c-3.72,3.85-8.13,6.82-13.24,8.91C317.44,113.9,311.26,115.05,304.53,115.05z"/>
		<path class="st9" d="M371.13,112.47V40.2c0-0.88-0.71-1.59-1.59-1.59h-26.35c-0.88,0-1.59-0.71-1.59-1.59v-7.52
			c0-0.88,0.71-1.59,1.59-1.59h68.08c0.88,0,1.59,0.71,1.59,1.59v7.52c0,0.88-0.71,1.59-1.59,1.59h-26.36
			c-0.88,0-1.59,0.71-1.59,1.59v72.27c0,0.88-0.71,1.59-1.59,1.59h-9C371.84,114.07,371.13,113.35,371.13,112.47z"/>
		<path class="st9" d="M426.27,112.47V29.49c0-0.88,0.71-1.59,1.59-1.59h9.12c0.88,0,1.59,0.71,1.59,1.59v82.98
			c0,0.88-0.71,1.59-1.59,1.59h-9.12C426.99,114.07,426.27,113.35,426.27,112.47z"/>
	</g>
	<g>
		<path class="st10" d="M574.46,114.44c-6.57,0-12.62-1.09-18.16-3.26c-5.54-2.17-10.34-5.25-14.4-9.23
			c-4.06-3.98-7.24-8.64-9.54-13.97c-2.3-5.33-3.45-11.2-3.45-17.6c0-6.4,1.15-12.27,3.45-17.6c2.3-5.33,5.5-9.99,9.6-13.97
			c4.1-3.98,8.92-7.06,14.46-9.23c5.54-2.17,11.59-3.26,18.16-3.26c6.65,0,12.78,1.13,18.4,3.39c5.11,2.05,9.52,5,13.24,8.85
			c0.62,0.64,0.62,1.65-0.02,2.27l-5.75,5.57c-0.63,0.61-1.61,0.58-2.24-0.02c-3-2.89-6.32-5.08-9.97-6.58
			c-4.1-1.68-8.49-2.52-13.17-2.52c-4.84,0-9.34,0.82-13.48,2.46c-4.14,1.64-7.73,3.94-10.77,6.89c-3.04,2.95-5.4,6.46-7.08,10.52
			c-1.68,4.06-2.52,8.47-2.52,13.23c0,4.76,0.84,9.17,2.52,13.23c1.68,4.06,4.04,7.57,7.08,10.52c3.04,2.95,6.63,5.25,10.77,6.89
			c4.14,1.64,8.64,2.46,13.48,2.46c4.68,0,9.07-0.84,13.17-2.52c3.65-1.49,6.97-3.72,9.97-6.67c0.63-0.62,1.62-0.65,2.25-0.03
			l5.74,5.56c0.64,0.62,0.64,1.63,0.02,2.27c-3.72,3.85-8.13,6.82-13.24,8.91C587.37,113.29,581.19,114.44,574.46,114.44z"/>
		<path class="st10" d="M661.98,114.44c-6.57,0-12.66-1.11-18.28-3.32c-5.62-2.22-10.48-5.31-14.59-9.29
			c-4.1-3.98-7.3-8.64-9.6-13.97c-2.3-5.33-3.45-11.16-3.45-17.48c0-6.32,1.15-12.14,3.45-17.48c2.3-5.33,5.5-9.99,9.6-13.97
			c4.1-3.98,8.94-7.08,14.53-9.29c5.58-2.22,11.69-3.33,18.34-3.33c6.57,0,12.62,1.09,18.16,3.26c5.54,2.18,10.38,5.25,14.53,9.23
			c4.14,3.98,7.34,8.64,9.6,13.97c2.25,5.34,3.38,11.2,3.38,17.6c0,6.4-1.13,12.27-3.38,17.6c-2.26,5.34-5.46,9.99-9.6,13.97
			c-4.15,3.98-8.99,7.06-14.53,9.23C674.6,113.35,668.55,114.44,661.98,114.44z M661.98,103.48c4.76,0,9.17-0.82,13.23-2.46
			c4.06-1.64,7.59-3.96,10.59-6.95c3-3,5.33-6.5,7.02-10.53c1.68-4.02,2.52-8.41,2.52-13.17c0-4.76-0.84-9.15-2.52-13.17
			c-1.68-4.02-4.02-7.53-7.02-10.52c-3-3-6.52-5.31-10.59-6.95c-4.06-1.64-8.47-2.46-13.23-2.46c-4.84,0-9.29,0.82-13.35,2.46
			c-4.06,1.64-7.61,3.96-10.65,6.95c-3.04,3-5.4,6.5-7.08,10.52c-1.68,4.02-2.52,8.41-2.52,13.17c0,4.76,0.84,9.15,2.52,13.17
			c1.68,4.02,4.04,7.53,7.08,10.53c3.04,3,6.59,5.31,10.65,6.95C652.69,102.66,657.14,103.48,661.98,103.48z"/>
		<path class="st10" d="M726.48,111.86V28.88c0-0.88,0.71-1.59,1.59-1.59h34.72c9.19,0,17.29,1.81,24.31,5.42
			c7.02,3.61,12.47,8.66,16.37,15.14c3.9,6.48,5.85,13.99,5.85,22.53c0,8.54-1.95,16.04-5.85,22.53
			c-3.9,6.48-9.36,11.53-16.37,15.14c-7.02,3.61-15.12,5.42-24.31,5.42h-34.72C727.2,113.45,726.48,112.74,726.48,111.86z
			 M738.79,101.15c0,0.88,0.71,1.59,1.59,1.59h21.67c7.14,0,13.31-1.36,18.53-4.06c5.21-2.71,9.25-6.5,12.13-11.39
			c2.87-4.88,4.31-10.52,4.31-16.93c0-6.48-1.44-12.14-4.31-16.99c-2.87-4.84-6.91-8.62-12.13-11.32
			c-5.21-2.71-11.39-4.06-18.53-4.06h-21.67c-0.88,0-1.59,0.71-1.59,1.59V101.15z"/>
		<path class="st10" d="M842.06,102.74h47.03c0.88,0,1.59,0.71,1.59,1.59v7.52c0,0.88-0.71,1.59-1.59,1.59h-59.34
			c-0.88,0-1.59-0.71-1.59-1.59V28.88c0-0.88,0.71-1.59,1.59-1.59h57.62c0.88,0,1.59,0.71,1.59,1.59v7.52
			c0,0.88-0.71,1.59-1.59,1.59h-45.31c-0.88,0-1.59,0.71-1.59,1.59v61.56C840.47,102.03,841.18,102.74,842.06,102.74z M840.96,64.46
			h41.12c0.88,0,1.59,0.71,1.59,1.59v7.27c0,0.88-0.71,1.59-1.59,1.59h-41.12c-0.88,0-1.59-0.71-1.59-1.59v-7.27
			C839.36,65.17,840.08,64.46,840.96,64.46z"/>
	</g>
</g>
</svg>
